/* XPM */
static char *_c4d649a023f4059b808736fc44bc507[] = {
/* columns rows colors chars-per-pixel */
"30 30 30 1 ",
"  c black",
". c gray2",
"X c gray4",
"o c gray5",
"O c gray7",
"+ c #161616",
"@ c #191919",
"# c #1D1D1D",
"$ c #202020",
"% c #252525",
"& c #272727",
"* c #313131",
"= c #393939",
"- c #3C3C3C",
"; c #414141",
": c #464646",
"> c #494949",
", c #4C4C4C",
"< c #535353",
"1 c #565656",
"2 c #5A5A5A",
"3 c gray37",
"4 c gray39",
"5 c gray40",
"6 c #6A6A6A",
"7 c #6C6C6C",
"8 c gray44",
"9 c #777777",
"0 c #797979",
"q c #7C7C7C",
/* pixels */
"                              ",
"                              ",
"                              ",
"              14.             ",
"             1004. $====o     ",
"            <00006 *0000&     ",
"           10000002 2000#     ",
"          1000520002 ,00#     ",
"         20006. 20001 40#     ",
"        40006 ,5X,0004 2*     ",
"       10005 :003 10001@O     ",
"      4q006.>q0005.,0005      ",
"    .20003 <000qq03o,0q06o    ",
"    3qq03o,q0q000007o,0007O   ",
"   50004 200q0q00q0q7O,0q09X  ",
" .40q0,o30q000q00q0007O:0007@ ",
" 80qq6X20qqq0qqq0q0qqq8+1q00q ",
" 2qq4.40qq0q0q0q0qqq0qq8.,qq6 ",
"  ,3. 0qq009888888900q0q# 22X ",
"     X9qq0q:......;qqq0q&     ",
"     X00q0q;      -qqq0q&     ",
"     X0qq0q;      ;q0q0q&     ",
"     X90qq0;      ;0q0qq&     ",
"     X0qqqq:      ;qqqqq&     ",
"     X0qqqq:      ;qqqqq&     ",
"     X00qq0:      ;qqqqq&     ",
"     oq0q0q>      :q0qq0&     ",
"     X89999;      -99999&     ",
"                              ",
"                              "
};
